<svg width="154" height="40" viewBox="0 0 154 40" fill="none" xmlns="http://www.w3.org/2000/svg">
    <path d="M19.821 33.34H6.601V6.66h5.035L5.034 0H0v40h19.821c6.76 0 12.727-3.41 16.3-8.632l-4.788-4.832c-2.27 4.05-6.566 6.785-11.512 6.785v.018z"
          fill="#1F51E5"/>
    <path d="M14.153 6.66 7.534 0h32.108v20c0 3.57-.933 6.91-2.552 9.822l-4.947-4.99c.581-1.493.898-3.127.898-4.832V6.66H14.153z"
          fill="#00A651"/>
    <path d="M29.344 16.199v-5.79h-5.738l5.738 5.79z" fill="#00A651"/>
    <path d="m129.565 19.509-.746-1.899c.838-.297 1.516-.623 2.032-.979.526-.356.911-.737 1.155-1.142a2.35 2.35 0 0 0 .38-1.261 3.38 3.38 0 0 0-.117-.86 6.386 6.386 0 0 0-.336-.965 11.36 11.36 0 0 0-.497-1.053l1.915-.935c.341.663.604 1.296.789 1.9.195.602.293 1.166.293 1.69 0 .485-.064.95-.19 1.395-.117.445-.302.86-.556 1.246a4.98 4.98 0 0 1-.95 1.112c-.39.347-.848.663-1.374.95-.527.297-1.126.564-1.798.8zM136.482 16.097l-.307-10.859h2.047l.307 10.859h-2.047zM139.822 15.504l.716-1.884a6.17 6.17 0 0 0 1.038.356c.332.079.663.118.994.118.341 0 .624-.03.848-.089.234-.069.41-.168.526-.296a.66.66 0 0 0 .176-.46c0-.168-.054-.4-.161-.697-.097-.297-.278-.683-.541-1.158-.263-.484-.648-1.082-1.155-1.795l1.74-1.172c.468.673.872 1.33 1.213 1.973.342.633.605 1.227.79 1.78.195.545.292 1.024.292 1.44 0 .514-.136.964-.409 1.35-.263.375-.658.672-1.184.89-.517.217-1.155.326-1.915.326-.283 0-.6-.025-.951-.074a8.557 8.557 0 0 1-1.067-.223 4.343 4.343 0 0 1-.95-.385zM52.938 16.409l.38-2.077c.946 0 1.77-.025 2.471-.075.702-.059 1.282-.143 1.74-.252.468-.118.814-.272 1.038-.46.234-.188.35-.415.35-.682 0-.356-.058-.781-.175-1.276a13.541 13.541 0 0 0-.453-1.528l1.915-.563c.127.336.249.707.366 1.112.117.396.21.796.278 1.202.078.395.117.766.117 1.112 0 .614-.132 1.143-.395 1.588-.263.435-.702.796-1.316 1.083-.604.277-1.423.48-2.456.608-1.033.138-2.32.207-3.86.207zm-.014 0c-1.053 0-1.945-.085-2.675-.253-.722-.158-1.311-.385-1.77-.682-.448-.307-.774-.663-.979-1.068a2.92 2.92 0 0 1-.307-1.335c0-.317.024-.633.073-.95.059-.326.127-.643.205-.95.088-.306.165-.583.234-.83l1.827.43c-.039.178-.083.371-.131.579a7.4 7.4 0 0 0-.117.608c-.03.188-.044.361-.044.52 0 .365.126.692.38.978.263.277.692.495 1.286.653.595.149 1.394.223 2.398.223l.292 1.602-.672.475zm2.412-6.78c-.283 0-.526-.099-.73-.297a1.028 1.028 0 0 1-.293-.727c0-.286.097-.534.292-.741a.99.99 0 0 1 .731-.312c.273 0 .507.104.702.312.195.207.292.455.292.741 0 .277-.097.52-.292.727a.95.95 0 0 1-.702.297zm-2.53-.015c-.282 0-.525-.099-.73-.296a1.029 1.029 0 0 1-.293-.727c0-.287.098-.534.293-.742a.991.991 0 0 1 .73-.312c.274 0 .508.104.703.312.194.208.292.455.292.742 0 .277-.098.519-.292.727a.95.95 0 0 1-.702.296zM62.871 16.097l-.307-10.859h2.047l.307 10.859H62.87zM66.21 15.504l.717-1.884c.36.158.707.277 1.038.356.331.079.663.118.994.118.341 0 .624-.03.848-.089.234-.069.41-.168.526-.296a.66.66 0 0 0 .176-.46c0-.168-.054-.4-.161-.697-.097-.297-.278-.683-.54-1.158-.264-.484-.649-1.082-1.156-1.795l1.74-1.172c.468.673.872 1.33 1.213 1.973.341.633.605 1.227.79 1.78.195.545.292 1.024.292 1.44 0 .514-.136.964-.41 1.35-.262.375-.657.672-1.183.89-.517.217-1.155.326-1.915.326-.283 0-.6-.025-.95-.074a8.548 8.548 0 0 1-1.068-.223 4.362 4.362 0 0 1-.95-.385zM74.421 16.097l-.307-10.859h2.047l.307 10.859H74.42zM77.112 19.524l-.746-1.84c.517-.178.99-.385 1.418-.623a5.98 5.98 0 0 0 1.14-.786 3.31 3.31 0 0 0 .746-.935c.175-.346.263-.717.263-1.112 0-.416-.092-.87-.278-1.365-.185-.495-.409-.999-.672-1.513l1.915-.935c.175.307.327.638.453.994.137.346.249.658.337.935.087.277.146.465.175.564.136.474.322.79.555.949.244.158.634.237 1.17.237.37 0 .634.1.79.297.165.188.248.425.248.712 0 .307-.102.564-.307.771-.205.198-.497.297-.877.297-.4 0-.75-.06-1.053-.178a1.742 1.742 0 0 1-.73-.52 1.733 1.733 0 0 1-.337-.8l.541.311a3.592 3.592 0 0 1-.512 1.484c-.273.474-.628.91-1.067 1.305-.439.396-.93.742-1.477 1.039a9.084 9.084 0 0 1-1.695.712z"
          fill="#000"/>
    <path d="m83.46 16.171.146-2.077h4.21c.37 0 .633.1.79.297.165.188.248.425.248.712 0 .307-.102.564-.307.771-.205.198-.497.297-.877.297h-4.21z"
          fill="#000"/>
    <path d="m87.685 16.171.147-2.077h4.21c.37 0 .633.1.79.297.165.188.248.425.248.712 0 .307-.102.564-.307.771-.205.198-.497.297-.877.297h-4.21z"
          fill="#000"/>
    <path d="m91.911 16.171.146-2.077h4.21c.371 0 .634.1.79.297.166.188.249.425.249.712 0 .307-.102.564-.307.771-.205.198-.497.297-.877.297h-4.21z"
          fill="#000"/>
    <path d="m96.137 16.171.146-2.077h4.211c.37 0 .633.1.789.297.166.188.249.425.249.712 0 .307-.103.564-.307.771-.205.198-.497.297-.877.297h-4.21z"
          fill="#000"/>
    <path d="m100.363 16.171.146-2.077h4.211c.37 0 .633.1.789.297.166.188.249.425.249.712 0 .307-.103.564-.307.771-.205.198-.497.297-.877.297h-4.211z"
          fill="#000"/>
    <path d="m104.589 16.171.146-2.077c.244 0 .429-.05.556-.148.126-.099.253-.272.38-.52.127-.246.302-.583.526-1.008.244-.475.497-.87.76-1.187.264-.326.527-.583.79-.771a2.72 2.72 0 0 1 .804-.416c.273-.089.541-.133.804-.133.361 0 .697.08 1.009.237.321.149.628.41.921.787.292.365.57.87.833 1.513.185.445.37.786.556 1.023.185.238.375.4.57.49.204.089.409.133.614.133.37 0 .633.1.789.297.156.188.234.425.234.712 0 .307-.102.564-.307.771-.205.198-.492.297-.862.297-.478 0-.912-.079-1.302-.237a2.045 2.045 0 0 1-.921-.712l.424-.327a2.98 2.98 0 0 1-.394.653c-.166.227-.385.42-.658.579-.263.158-.58.237-.95.237-.244 0-.532-.05-.863-.148a3.915 3.915 0 0 1-1.009-.46 3.966 3.966 0 0 1-.95-.92c-.185.346-.39.618-.614.816a1.995 1.995 0 0 1-.79.4c-.302.08-.667.12-1.096.12zm3.348-3.085c.097.148.214.296.351.445.136.148.287.281.453.4.166.109.341.198.526.267.195.07.385.104.57.104a.608.608 0 0 0 .483-.223c.127-.158.131-.39.014-.697a3.222 3.222 0 0 0-.204-.43 2.89 2.89 0 0 0-.278-.475 1.536 1.536 0 0 0-.336-.37.561.561 0 0 0-.366-.149.786.786 0 0 0-.394.119c-.137.079-.273.203-.41.37-.136.159-.273.372-.409.639z"
          fill="#000"/>
    <path d="m113.712 16.171.146-2.077c.448 0 .77-.044.965-.133.195-.1.312-.277.351-.534.039-.267.049-.653.029-1.157l-.263-7.032h2.061l.293 7.18a8.805 8.805 0 0 1-.073 1.558c-.059.454-.21.845-.454 1.171-.234.327-.599.58-1.096.757-.487.178-1.141.267-1.959.267zM119.222 16.097l-.307-10.859h2.046l.307 10.859h-2.046z"
          fill="#000"/>
    <path d="M79.32 8.59c.214.208.472.312.774.312.293 0 .541-.104.746-.311.214-.208.321-.465.321-.772a1.08 1.08 0 0 0-.321-.786.986.986 0 0 0-.746-.326c-.302 0-.56.108-.775.326-.204.218-.307.48-.307.786 0 .307.103.564.307.772z"
          fill="#00A651"/>
    <g>
        <path d="M50.438 34.671c-.97 0-2.177-.028-3.245-.077v-10.29a60.487 60.487 0 0 1 3.634-.105c3.106 0 5.407 1.787 5.407 4.873 0 3.616-2.4 5.6-5.79 5.6h-.006zm0-8.838H49.25v7.142h1.372c2.005 0 3.43-1.299 3.43-3.617s-1.399-3.525-3.614-3.525zM65.54 34.594l-.884-2.709H61.41l-.857 2.71H58.45l3.528-10.291h2.262l3.535 10.29h-2.236zm-2.276-7.267c-.132-.412-.244-1.215-.244-1.215s-.112.775-.257 1.215l-1.002 3.085h2.519l-1.016-3.085zM76.572 34.594c-1.53-3.33-1.873-3.993-2.288-4.147h-1.372v4.147h-2.03v-10.29c1.1-.028 2.4-.091 3.514-.091 2.176 0 3.462 1.075 3.462 2.771a2.99 2.99 0 0 1-1.774 2.758c.56.286.97.936 2.889 4.86h-2.4v-.008zm-2.756-8.838h-.904v3.24h1.847c.56-.287.99-.936.99-1.662 0-.999-.687-1.578-1.933-1.578zM92.558 34.594l-.884-2.709H88.43l-.858 2.71H85.47l3.528-10.291h2.262l3.534 10.29h-2.235zm-2.275-7.267c-.132-.412-.244-1.215-.244-1.215s-.112.775-.257 1.215l-1.003 3.085h2.52l-1.016-3.085zM104.91 34.58c-.284.091-.686.14-1.075.14-.758 0-1.174-.377-1.359-1.09h-.072c-.587.685-1.372 1.139-2.414 1.139-1.358 0-2.4-.922-2.4-2.604v-5.292h1.899v4.636c0 1.089.501 1.647 1.444 1.647.541 0 .989-.21 1.372-.544v-5.74h1.899v5.418c0 .622.257.908.831.957l-.125 1.333zM113.391 28.8c-.528-.273-1.247-.517-1.933-.517-1.16 0-2.018 1.061-2.018 2.374 0 1.438.772 2.45 2.058 2.45.732 0 1.385-.195 2.031-.468l-.059 1.557c-.699.363-1.53.559-2.46.559-2.156 0-3.515-1.557-3.515-3.833 0-2.45 1.556-4.238 3.904-4.238.871 0 1.616.259 2.157.559l-.172 1.543.007.014zM118.759 34.762c-1.286 0-2.117-.845-2.117-2.15 0-.44.046-2.45.046-3.666v-.649h-.686v-.789l2.361-2.318h.185v1.683h2.314v1.424h-2.314c0 .119-.027 2.59-.027 3.63 0 .817.455 1.18 1.161 1.18.369 0 .818-.049 1.246-.195v1.396a5.313 5.313 0 0 1-2.156.454h-.013zM123.896 34.601v-7.728h1.919v7.721h-1.919v.007z"
              fill="#000"/>
        <path d="M123.85 24.38c0 .594.462 1.076 1.002 1.076.561 0 1.003-.482 1.003-1.075 0-.594-.455-1.048-1.003-1.048-.547 0-1.002.454-1.002 1.048z"
              fill="#00A651"/>
        <path d="M132.641 34.762c-2.203 0-3.621-1.725-3.621-3.903 0-2.436 1.517-4.16 3.917-4.16 2.203 0 3.621 1.724 3.621 3.902 0 2.436-1.53 4.16-3.917 4.16zm.131-6.584c-1.101 0-1.787 1.103-1.787 2.5 0 1.396.713 2.604 1.834 2.604s1.8-1.103 1.8-2.486c0-1.382-.712-2.618-1.847-2.618zM144.412 34.594v-4.663c0-1.076-.541-1.62-1.444-1.62a2.55 2.55 0 0 0-1.372.405v5.871h-1.899V26.95l1.833-.154-.026 1.061h.059c.528-.621 1.398-1.166 2.401-1.166 1.286 0 2.347.908 2.347 2.646v5.25h-1.886l-.013.007z"
              fill="#000"/>
    </g>
</svg>
